<?xml version="1.0" encoding="utf-8"?>
<!-- Generator: Adobe Illustrator 22.0.1, SVG Export Plug-In . SVG Version: 6.00 Build 0)  -->
<svg version="1.1" id="Capa_1" xmlns="http://www.w3.org/2000/svg" xmlns:xlink="http://www.w3.org/1999/xlink" x="0px" y="0px"
	 viewBox="0 0 841.7 841.7" style="enable-background:new 0 0 841.7 841.7;" xml:space="preserve">
<style type="text/css">
	.st0{fill:#FFFFFF;}
	.st1{fill:#010101;}
	.st2{fill:#181414;}
	.st3{fill:#3C3433;}
	.st4{fill:#2A2323;}
</style>
<g>
	<g>
		<path class="st0" d="M844.3,513.5c0,108.1-0.1,216.1,0.2,324.2c0,5.6-1.1,6.7-6.7,6.7c-276.5-0.2-553-0.2-829.5,0
			c-5.6,0-6.8-1.1-6.7-6.7c0.3-53.2,0.2-106.4,0.2-159.6c4-3.3,8.9-2.3,13.4-2.3c83.3-0.1,166.7,0.1,250-0.1
			c30.4-0.1,60.2-4.5,88.2-16.9c40.2-17.7,67.9-46.8,78.4-90.2c8.6-35.6,7.9-71.2-2.7-106.4c-4.2-14.1-10.9-26.8-20.6-38
			c-13.7-15.8-30.9-25-51.6-27.9c-2.7-0.4-5.5-0.5-8-1.8c-0.8-0.4-1.3-1-1.6-1.9c1.6-3.4,5.1-3.6,8.1-4.5
			c42.6-12.7,62.5-47.3,63.7-87.9c0.6-21.3-1.5-42.1-9.4-62.2c-15-38.2-43-62-81.9-73.6c-16.9-5-34.2-7.4-51.9-7.4
			c-86.9,0.2-173.8,0.1-260.7,0.1c-4.6,0-9.4,1-13.4-2.3c0-49.3,0.1-98.7-0.2-148c0-5.4,0.8-6.8,6.6-6.8c276.3,0.2,552.7,0.2,829,0
			c6.7,0,7.3,2.1,7.3,7.9c-0.2,150.5-0.1,301-0.1,451.5c-4.7-0.9-3.6-4.8-4-7.8c-4.3-31-12.3-60.7-28.8-87.7
			c-20-32.5-48.2-54.8-84.8-65c-47.9-13.4-96.1-13-143.3,3.4c-46.3,16.1-78.1,48.2-98.9,92.1c-14.6,30.8-22.5,63.5-22.5,97
			c0,57.2,15.6,109.6,59.7,149.7c19.6,17.8,42.9,29.8,68.5,36.2c47.6,11.9,95.5,12.6,143.2,0.3c33.3-8.6,62.2-24.6,82.7-53.2
			c13.9-19.3,19.9-41.3,20.9-64.8c0.3-6.7-2.1-9.3-9-9.2c-22.8,0.3-45.5,0.3-68.3,0c-6.5-0.1-9.7,1.8-11.3,8.6
			c-3.6,15.3-12,28.2-26.4,35.1c-36.6,17.6-73.9,19-110.7,0.7c-20.8-10.4-31.8-28.7-37.6-50.6c-1.9-7.4-3.7-14.9-3.3-22.7
			c0.3-5.3,2.7-8.1,8.1-8.3c2.5-0.1,4.9-0.1,7.4-0.1c84.5-0.1,168.9,0.2,253.4-0.2C841.1,512.7,842.8,512.6,844.3,513.5z"/>
		<path class="st1" d="M1.6,154.7c54.3-0.1,108.6-0.2,162.9-0.2c40.3,0,80.7-0.9,120.9,0.5c42.9,1.5,81.1,15.4,108.6,50.5
			c24.7,31.5,30.3,68.3,26.1,107c-2.4,22.4-11.1,42.2-28,57.7c-12.5,11.5-27.6,18.1-46.1,22.7c31.4,2,55,14.1,71.3,38.9
			c10.4,15.7,16.4,33.2,19.2,51.7c4.9,31.4,5,62.8-4.7,93.4c-15.2,48.2-50.1,76-96.7,90.9c-21.5,6.9-43.8,9.5-66.3,9.6
			c-86.1,0.1-172.2,0-258.4,0.1c-3,0-6,0.3-9,0.5C1.6,503.6,1.6,329.2,1.6,154.7z"/>
		<path class="st1" d="M844.3,513.5c-3,1.8-6.3,1.3-9.6,1.3c-84.7,0-169.5,0.1-254.2-0.1c-6.3,0-8.1,1.4-8,8
			c1.3,45.4,32.5,78.4,77.8,81.7c20.7,1.5,41.1,0.6,60.6-7c20.2-8,33.7-21.9,36.2-44.4c0.4-3.2,1.6-4.2,4.6-4.2
			c28,0,55.9,0.1,83.9,0c3.3,0,4.2,1.3,4.1,4.5c-0.6,46.8-19.6,83.6-60.2,107.8c-34.8,20.7-73.3,27.3-113.2,27.4
			c-31.7,0.1-62.8-3-92.7-14.1c-53.6-19.9-88-58.3-103.5-112.6c-22.5-79.2-9-152.2,44-216.1c25-30.2,59.2-46.4,97.2-53.5
			c38.6-7.2,77.3-6.9,115.4,4.4c46.1,13.7,78.3,43.2,97.7,86.9c10.3,23.4,16.4,47.9,18.3,73.5c0.1,1.1,0.3,2.1,1.6,2.5
			c0,7.1,0,14.3,0,21.4c-1.8,3.2-0.4,6.7-0.8,10.1c0,2.6,0,5.2,0,7.8c0.4,3.4-0.9,6.9,0.8,10.1C844.3,510.2,844.3,511.8,844.3,513.5
			z"/>
		<path class="st2" d="M842.6,490.4c0.5-3.3-1.3-7,1.6-9.9c0,3.3,0,6.6,0,9.9C843.7,491.2,843.2,491.2,842.6,490.4z"/>
		<path class="st3" d="M844.3,508.5c-3.2-2.8-1-6.6-1.6-9.9c0.5-0.7,1.1-0.8,1.6,0C844.3,502,844.3,505.3,844.3,508.5z"/>
		<path class="st4" d="M844.3,498.7c-0.5,0-1.1,0-1.6,0c0-2.7,0-5.5,0-8.2c0.5,0,1.1,0,1.6,0C844.3,493.2,844.3,495.9,844.3,498.7z"
			/>
		<path class="st1" d="M656.7,250c-33.7,0-67.4-0.2-101.1,0.2c-6.3,0.1-7.7-1.8-7.6-7.8c0.4-16.7,0.3-33.4,0-50.1
			c-0.1-5.4,0.9-7.6,7-7.6c67.4,0.2,134.8,0.2,202.2,0.1c5,0,7.4,0.7,7.3,6.6c-0.4,17.5-0.3,35.1,0,52.6c0.1,5.4-1.9,6.2-6.7,6.2
			C724.2,249.9,690.4,250,656.7,250z"/>
		<path class="st0" d="M199.3,444.5c21.9,0,43.9,0,65.8,0c36.1,0,59.1,20.8,62.4,57c1.4,15,1.5,30.1-3.4,44.7
			c-7.9,23.8-27.1,37.3-57.4,37.8c-46.6,0.7-93.2,0.2-139.9,0.3c-3.8,0-5.2-0.8-5.2-4.9c0.1-43.3,0.2-86.7,0-130
			c0-5.1,2.5-4.9,6.1-4.9C151.6,444.6,175.4,444.5,199.3,444.5z"/>
		<path class="st0" d="M200.4,247.7c21.1,0,42.3,0.9,63.3-0.2c27.7-1.4,41.2,15.5,44.7,36.1c3.1,18.2,2.5,36.5-3.3,54.3
			c-5.7,17.4-18.5,25.5-35.8,25.7c-47.4,0.5-94.8,0.1-142.2,0.3c-4.5,0-5.4-1.5-5.3-5.6c0.1-34.8,0.2-69.6,0-104.4
			c0-5.2,1.5-6.4,6.4-6.3C152.2,247.8,176.3,247.7,200.4,247.7z"/>
		<path class="st0" d="M571.4,443.6c8.7-35.6,25.7-64.9,63.6-75.1c31.8-8.6,62.7-6.5,87,19.7c13.2,14.2,18,32.1,20.2,50.9
			c0.4,3.4,0.1,5.4-4.4,5.4c-55.1-0.2-110.2-0.3-165.3-0.3C572.3,444.1,572.1,443.9,571.4,443.6z"/>
	</g>
</g>
</svg>
