<?xml version="1.0" encoding="utf-8"?>
<!-- Generator: Adobe Illustrator 22.0.1, SVG Export Plug-In . SVG Version: 6.00 Build 0)  -->
<svg version="1.1" id="Capa_1" xmlns="http://www.w3.org/2000/svg" xmlns:xlink="http://www.w3.org/1999/xlink" x="0px" y="0px"
	 viewBox="0 0 700 700" style="enable-background:new 0 0 700 700;" xml:space="preserve">
<g>
	<path d="M675.1,258c-0.2-43.9-15.3-86.5-43-120.6c9.4-39,6.5-80-8.4-117.3c-2.9-7.2-8.9-12.7-16.3-15c-10.5-3.6-50.1-10.3-131,42v0
		c-34.8-9.2-70.6-13.5-106.6-12.9C334,33.7,298,38,263.2,47.2C180.3-6.4,137.2,2.3,128.5,4.8c-7.4,2.4-13.4,8-16.3,15.3
		c-14.9,37.2-17.9,78.1-8.7,117c-28.5,34-43.8,77.2-42.8,121.5c0,165.5,94.7,215.5,181.5,233.2c-4.5,10.9-7.5,22.3-9.1,34
		c-0.2,1.2-0.2,2.5,0,3.7v45.8c-79,6.6-95.9-39.7-97.6-44.9v0c-0.4-1.2-0.8-2.4-1.4-3.6c-15.3-31.1-42.1-55-74.8-66.6
		c-13.7-4.6-28.6,2.8-33.1,16.5c-4.6,13.7,2.8,28.6,16.5,33.2c18.1,6.5,33.2,19.5,42.5,36.4c10.5,34,53.3,87.7,147.6,81.7v43.1
		c0,14.5,11.7,26.2,26.2,26.2c14.5,0,26.2-11.7,26.2-26.2V531.5c2-15.3,8.6-29.5,19-40.9c7.4-7,10.1-17.6,6.9-27.2
		c-3.2-9.6-11.8-16.5-21.9-17.7C198,435.1,113.6,405,113.6,257.6h0c-1.2-36,12.7-70.8,38.3-96.1c7-7.5,9.2-18.2,6-27.8
		c-8.8-25.6-9.4-53.4-1.6-79.3c32.1,7.3,62.3,21.4,88.4,41.5c6.8,4.5,15.3,5.7,23.1,3.1C301,88.8,335.6,84.1,370.4,85
		c34.7-0.9,69.3,3.8,102.5,13.9c7.8,2.5,16.3,1.4,23.1-3.1c25.2-19.3,54-33.3,84.7-41.2c7.6,26.3,7,54.2-2,80.1
		c-3,8.8-1,18.5,5.1,25.4c24.8,26.5,38.8,61.2,39.4,97.4c0,147.1-88.7,177.7-175.7,188.1c-10.7,1.2-19.5,8.8-22.3,19.1
		c-2.8,10.4,1.1,21.3,9.7,27.7c9.3,7,20.1,26.8,20.1,59.9V671c0,14.5,11.7,26.2,26.2,26.2c14.5,0,26.2-11.7,26.2-26.2V552.4
		c0.3-20.8-3.5-41.5-11.2-60.9C566.5,476.5,675.1,430.3,675.1,258L675.1,258z"/>
</g>
</svg>
