<?xml version="1.0" encoding="utf-8"?>
<!-- Generator: Adobe Illustrator 22.0.1, SVG Export Plug-In . SVG Version: 6.00 Build 0)  -->
<svg version="1.1" id="Capa_1" xmlns="http://www.w3.org/2000/svg" xmlns:xlink="http://www.w3.org/1999/xlink" x="0px" y="0px"
	 viewBox="0 0 700 700" style="enable-background:new 0 0 700 700;" xml:space="preserve">
<g>
	<path d="M546.9,70H153.1c-22,0.1-43.1,8.8-58.7,24.4C78.8,110,70.1,131.1,70,153.1v393.9c0.1,22,8.8,43.1,24.4,58.7
		c15.6,15.6,36.7,24.3,58.7,24.4h393.9c22-0.1,43.1-8.8,58.7-24.4c15.6-15.6,24.3-36.7,24.4-58.7V153.1c-0.1-22-8.8-43.1-24.4-58.7
		C590,78.8,568.9,70.1,546.9,70L546.9,70z M583.3,546.9c0,9.7-3.8,18.9-10.7,25.7s-16.1,10.7-25.7,10.7H153.1
		c-9.7,0-18.9-3.8-25.7-10.7c-6.8-6.8-10.7-16.1-10.7-25.7V153.1c0-9.7,3.8-18.9,10.7-25.7s16.1-10.7,25.7-10.7h393.9
		c9.7,0,18.9,3.8,25.7,10.7s10.7,16.1,10.7,25.7V546.9z"/>
	<path d="M350,210c-37.1,0-72.7,14.8-99,41c-26.3,26.3-41,61.9-41,99s14.8,72.7,41,99c26.3,26.3,61.9,41,99,41s72.7-14.8,99-41
		c26.3-26.3,41-61.9,41-99s-14.8-72.7-41-99C422.7,224.7,387.1,210,350,210z M350,443.3c-24.8,0-48.5-9.8-66-27.3
		s-27.3-41.2-27.3-66s9.8-48.5,27.3-66s41.2-27.3,66-27.3s48.5,9.8,66,27.3s27.3,41.2,27.3,66s-9.8,48.5-27.3,66
		S374.8,443.3,350,443.3z"/>
	<path d="M536.7,198.3c0,19.3-15.7,35-35,35c-19.3,0-35-15.7-35-35c0-19.3,15.7-35,35-35C521,163.3,536.7,179,536.7,198.3"/>
</g>
</svg>
